#!OML:ASF I:\Actors\actors\Patient Classification 2\Patient 1\Session 1\actor1.ASF
:FULLY-SPECIFIED
:DEGREES
432
root -0.658473 18.6655 7.1713 1.15646 -0.675655 -3.22136
lowerback 8.62008 0.170299 -0.811134
upperback -5.51188 0.222781 1.0368
thorax -10.777 0.213759 1.53283
lowerneck -20.6191 -1.6104 -0.181916
upperneck 27.9639 -3.04853 2.39051
head 12.808 -1.0368 0.435437
rclavicle 1.9133e-015 -6.95746e-015
rhumerus -26.044 -35.8474 9.75598
rradius 61.5513
rwrist -25.7069
rhand 24.6839 -34.0942
rfingers 7.12502
rthumb 48.8707 -55.8903
lclavicle 1.9133e-015 -6.95746e-015
lhumerus -19.2828 47.8979 -4.50301
lradius 52.2616
lwrist 39.6162
lhand 11.0714 -24.0276
lfingers 7.12502
lthumb 36.1418 2.25393
rfemur 12.1984 1.59118 16.8625
rtibia 6.83819e-014
rfoot -18.4903 -9.92247
rtoes -7.46147
lfemur -1.14567 -5.79797 -11.6502
ltibia 23.9772
lfoot -23.3106 9.89732
ltoes -57.5633
433
root -0.65355 18.6679 7.15318 1.19038 -0.630356 -3.2756
lowerback 9.21742 0.179971 -0.629604
upperback -5.72085 0.255994 0.99163
thorax -11.3724 0.219118 1.37915
lowerneck -19.9886 -1.58979 -0.0150533
upperneck 28.1924 -3.02458 2.21455
head 12.7639 -1.03584 0.348338
rclavicle -1.963e-015 -1.39149e-015
rhumerus -26.2987 -36.0795 9.78143
rradius 60.7847
rwrist -24.9876
rhand 24.7341 -34.0004
rfingers 7.12502
rthumb 48.917 -55.7737
lclavicle -1.963e-015 -1.39149e-015
lhumerus -20.0634 47.3943 -4.50071
lradius 52.3576
lwrist 39.576
lhand 10.9231 -24.1571
lfingers 7.12502
lthumb 36.0013 2.15904
rfemur 12.1029 1.5466 16.8975
rtibia 2.06736e-014
rfoot -18.4383 -9.92461
rtoes -7.55229
lfemur -1.28501 -5.65005 -11.5545
ltibia 23.99
lfoot -23.1575 9.73841
ltoes -57.5242
434
root -0.647638 18.6684 7.1325 1.22687 -0.601172 -3.31569
lowerback 9.19586 0.1382 -0.8048
upperback -5.41955 0.191539 1.17029
thorax -11.0203 0.205791 1.68082
lowerneck -19.8577 -1.48824 0.143191
upperneck 28.1361 -2.81874 1.87132
head 12.7012 -0.976906 0.224914
rclavicle -3.35449e-015 2.18663e-015
rhumerus -26.2515 -37.1076 9.69923
rradius 59.9445
rwrist -24.2517
rhand 24.9045 -33.722
rfingers 7.12502
rthumb 49.0735 -55.4179
lclavicle -3.35449e-015 2.18663e-015
lhumerus -21.5186 47.9091 -4.71444
lradius 52.6097
lwrist 39.3435
lhand 11.1257 -24.4851
lfingers 7.12502
lthumb 36.1932 1.78366
rfemur 11.9853 1.51791 16.9138
rtibia -4.77083e-015
rfoot -18.3584 -9.96657
rtoes -7.92779
lfemur -1.44255 -5.5031 -11.4885
ltibia 24.0095
lfoot -23.0383 9.63223
ltoes -57.5376
435
root -0.640708 18.6684 7.10696 1.283 -0.577689 -3.29086
lowerback 9.58525 0.126557 -0.794415
upperback -5.35296 0.173932 1.15053
thorax -11.1795 0.196582 1.65837
lowerneck -19.6708 -1.49495 0.171499
upperneck 28.228 -2.84844 1.8991
head 12.7004 -0.983662 0.227234
rclavicle -1.46604e-015 2.18663e-015
rhumerus -27.1631 -37.0875 9.75041
rradius 59.8706
rwrist -24.2612
rhand 24.7841 -33.4289
rfingers 7.12502
rthumb 48.9629 -55.1796
lclavicle -1.46604e-015 2.18663e-015
lhumerus -22.6654 48.0413 -4.85533
lradius 52.8903
lwrist 39.2669
lhand 11.3089 -24.5767
lfingers 7.12502
lthumb 36.3667 1.64883
rfemur 11.8236 1.49267 16.8591
rtibia 2.06736e-014
rfoot -18.253 -10.025
rtoes -8.32356
lfemur -1.65018 -5.41593 -11.5143
ltibia 24.0761
lfoot -23.0227 9.60585
ltoes -57.5571
436
root -0.635028 18.6651 7.07589 1.29054 -0.537832 -3.34941
lowerback 10.1389 0.129426 -0.702883
upperback -5.29555 0.189303 1.14492
thorax -11.4492 0.19857 1.60012
lowerneck -19.4487 -1.53019 0.149354
upperneck 28.2639 -2.92302 2.00002
head 12.6725 -1.00673 0.259047
rclavicle -1.80646e-014 1.59028e-015
rhumerus -29.0062 -36.321 9.90455
rradius 60.9288
rwrist -25.0375
rhand 24.3031 -33.8733
rfingers 7.12502
rthumb 48.5206 -55.8395
lclavicle -1.80646e-014 1.59028e-015
lhumerus -23.6991 48.2052 -4.9271
lradius 53.0255
lwrist 39.1785
lhand 11.2771 -24.4836
lfingers 7.12502
lthumb 36.3366 1.74954
rfemur 11.7062 1.45305 16.9167
rtibia 1.11319e-014
rfoot -18.1631 -10.0746
rtoes -8.82702
lfemur -1.8316 -5.32837 -11.4451
ltibia 24.1677
lfoot -23.0779 9.60904
ltoes -57.542
437
root -0.630242 18.6578 7.04197 1.26982 -0.520626 -3.47071
lowerback 10.7698 0.129338 -0.571501
upperback -5.2647 0.210004 1.15546
thorax -11.7962 0.201232 1.53629
lowerneck -19.0733 -1.5391 0.142887
upperneck 28.2091 -2.95238 2.07753
head 12.5749 -1.01409 0.287794
rclavicle 1.2101e-014 -1.70955e-014
rhumerus -28.6274 -37.5901 9.75727
rradius 59.2068
rwrist -24.0389
rhand 24.6984 -34.4411
rfingers 7.12502
rthumb 48.8841 -56.2306
lclavicle 1.2101e-014 -1.70955e-014
lhumerus -24.7111 48.3757 -5.02446
lradius 53.0449
lwrist 39.0247
lhand 11.212 -24.6
lfingers 7.12502
lthumb 36.2749 1.64849
rfemur 11.6108 1.43653 17.064
rtibia -9.54166e-015
rfoot -18.1712 -10.1139
rtoes -9.17333
lfemur -1.99382 -5.21704 -11.3159
ltibia 24.2834
lfoot -23.2 9.63782
ltoes -57.5326
438
root -0.624591 18.6497 7.00564 1.29333 -0.581504 -3.53997
lowerback 11.3261 0.136949 -0.525452
upperback -5.21304 0.228244 1.16164
thorax -12.0755 0.208295 1.51562
lowerneck -18.6627 -1.51462 0.116098
upperneck 28.055 -2.93682 2.20063
head 12.4311 -0.999408 0.344641
rclavicle 1.3418e-015 9.74045e-015
rhumerus -28.9802 -38.1843 9.5723
rradius 58.5388
rwrist -23.7408
rhand 24.5572 -34.8196
rfingers 7.12502
rthumb 48.7543 -56.6726
lclavicle 1.3418e-015 9.74045e-015
lhumerus -25.8126 48.6497 -5.20201
lradius 53.0675
lwrist 38.9232
lhand 11.3735 -24.9102
lfingers 7.12502
lthumb 36.4279 1.30009
rfemur 11.4458 1.49426 17.1579
rtibia -1.43125e-014
rfoot -18.3154 -10.1495
rtoes -9.13658
lfemur -2.19828 -5.14159 -11.2795
ltibia 24.4161
lfoot -23.4477 9.80458
ltoes -57.4721
439
root -0.620514 18.6407 6.96719 1.28643 -0.714801 -3.5747
lowerback 11.8676 0.183396 -0.597422
upperback -5.08496 0.282011 1.19617
thorax -12.2608 0.241921 1.58387
lowerneck -18.2693 -1.48054 0.122349
upperneck 27.7743 -2.89425 2.26292
head 12.2389 -0.978948 0.376323
rclavicle 1.19022e-014 -5.96354e-016
rhumerus -29.7374 -38.4369 9.43656
rradius 58.4362
rwrist -23.7493
rhand 24.2699 -34.6907
rfingers 7.12502
rthumb 48.49 -56.6716
lclavicle 1.19022e-014 -5.96354e-016
lhumerus -26.9374 49.1326 -5.33229
lradius 53.1609
lwrist 38.7871
lhand 11.4277 -25.0422
lfingers 7.12502
lthumb 36.4792 1.1551
rfemur 11.305 1.62477 17.2201
rtibia -1.59028e-014
rfoot -18.5011 -10.2117
rtoes -9.33335
lfemur -2.35665 -5.07805 -11.2988
ltibia 24.5451
lfoot -23.7336 10.0498
ltoes -57.35
440
root -0.617535 18.6287 6.92492 1.23175 -0.885549 -3.59129
lowerback 12.5104 0.251193 -0.721303
upperback -4.9315 0.355886 1.24314
thorax -12.4799 0.289974 1.69035
lowerneck -17.9639 -1.43064 0.14342
upperneck 27.5303 -2.81142 2.24716
head 12.0782 -0.947922 0.381491
rclavicle -2.9445e-015 -1.8487e-014
rhumerus -30.4691 -38.6812 9.30545
rradius 58.3562
rwrist -23.7445
rhand 24.1286 -34.6305
rfingers 7.12502
rthumb 48.3599 -56.6736
lclavicle -2.9445e-015 -1.8487e-014
lhumerus -28.0105 49.6006 -5.41791
lradius 53.2535
lwrist 38.5718
lhand 11.2007 -25.0195
lfingers 7.12502
lthumb 36.2643 1.23168
rfemur 11.1997 1.79408 17.2704
rtibia 1.43125e-014
rfoot -18.6934 -10.2991
rtoes -9.76033
lfemur -2.45638 -5.01115 -11.3323
ltibia 24.652
lfoot -23.9777 10.2531
ltoes -57.259
441
root -0.613658 18.6169 6.87833 1.21175 -1.0582 -3.58128
lowerback 13.19 0.303907 -0.850192
upperback -4.80031 0.403525 1.26038
thorax -12.7457 0.325091 1.77286
lowerneck -17.7621 -1.35519 0.151698
upperneck 27.4108 -2.70034 2.25381
head 11.9885 -0.899889 0.400915
rclavicle -4.14963e-015 -3.77691e-015
rhumerus -31.1149 -38.9023 9.06316
rradius 58.2659
rwrist -23.7592
rhand 24.0172 -34.6103
rfingers 7.12502
rthumb 48.2574 -56.7021
lclavicle -4.14963e-015 -3.77691e-015
lhumerus -29.0862 49.7648 -5.55639
lradius 53.351
lwrist 38.4121
lhand 11.1303 -25.0092
lfingers 7.12502
lthumb 36.1976 1.25853
rfemur 11.0321 1.96303 17.2917
rtibia 3.18055e-015
rfoot -18.8855 -10.4213
rtoes -10.4226
lfemur -2.59576 -4.97314 -11.3845
ltibia 24.7268
lfoot -24.191 10.4114
ltoes -57.0888
